<svg xmlns="http://www.w3.org/2000/svg" viewBox="0 0 400 400"><rect width="400" height="400" fill="#fbf7ef"/><circle cx="200" cy="200" r="150" fill="#e8d3b7"/><g fill="#b57538" stroke="#7f4b24" stroke-width="6"><path d="M114 158c32-60 97-30 84 25-8 34-55 57-86 30-18-16-13-36 2-55z"/><path d="M218 134c58-32 105 24 72 69-20 28-75 27-92-10-10-22 0-44 20-59z"/><path d="M160 245c48-45 105-5 84 46-13 33-66 47-93 18-17-18-10-43 9-64z"/></g><path d="M130 182c28 2 46 13 56 34M231 154c4 30 22 47 54 50M180 267c20 6 35 22 45 48" stroke="#e3a764" stroke-width="7" stroke-linecap="round"/></svg>
